<?xml version="1.0" encoding="utf-8"?>
<!-- Generator: Adobe Illustrator 24.2.0, SVG Export Plug-In . SVG Version: 6.00 Build 0)  -->
<svg version="1.1" id="Calque_1" xmlns="http://www.w3.org/2000/svg" xmlns:xlink="http://www.w3.org/1999/xlink" x="0px" y="0px"
	 viewBox="0 0 281 280" style="enable-background:new 0 0 281 280;" xml:space="preserve">
<style type="text/css">
	.st0{fill:#EEF0E4;}
</style>
<path class="st0" d="M241,109H132c-15.4,0-20.8-10.6-11.8-23.5l54.5-78.5c6.4-9.4,17.1-9.4,23.5,0l54.5,78.5
	C261.7,98.4,256.4,109,241,109z"/>
<path class="st0" d="M259.5,215.7h-146c-20.6,0-27.7-14.1-15.5-31.3l52.1-75.4h72.9l52.1,75.4C287.2,201.6,280.1,215.7,259.5,215.7z
	 M196.3,215.7v62c0,6.4-4.4,11.6-9.8,11.6c-5.4,0-9.8-5.3-9.8-11.6v-62H196.3z"/>
<path class="st0" d="M104.8,140.6H28.2c-10.8,0-14.6-7.5-8.3-16.5l38.3-55.2c4.5-6.6,12-6.6,16.5,0l38.3,55.2
	C119.4,133.2,115.6,140.6,104.8,140.6z"/>
<path class="st0" d="M117.8,215.7H15.1c-14.5,0-19.5-9.9-10.9-22l36.7-53h51.3l36.7,53C137.3,205.7,132.3,215.7,117.8,215.7z
	 M73.4,215.7v62c0,6.4-3.1,11.6-6.9,11.6s-6.9-5.3-6.9-11.6v-62H73.4z"/>
</svg>
