<?xml version="1.0" encoding="utf-8"?>
<!-- Generator: Adobe Illustrator 24.2.0, SVG Export Plug-In . SVG Version: 6.00 Build 0)  -->
<svg version="1.1" id="Calque_1" xmlns="http://www.w3.org/2000/svg" xmlns:xlink="http://www.w3.org/1999/xlink" x="0px" y="0px"
	 viewBox="0 0 576 512" style="enable-background:new 0 0 576 512;" xml:space="preserve">
<style type="text/css">
	.st0{fill:#FFFFFF;}
</style>
<path class="st0" d="M576,128v160c0,17.7-14.3,32-32,32s-32-14.3-32-32v-82.8L342.6,374.6c-6.2,6.2-14.4,9.4-22.6,9.4
	s-16.4-3.1-22.6-9.4L192,269.2L54.6,406.6c-6.2,6.2-14.4,9.4-22.6,9.4c-18.3,0-32-14.9-32-32c0-8.2,3.1-16.4,9.4-22.6l160-160
	c6.2-6.2,14.4-9.4,22.6-9.4s16.4,3.1,22.6,9.4L320,306.8L466.8,160H384c-17.7,0-32-14.3-32-32s14.3-32,32-32h160
	C560.8,96,576,109.4,576,128z"/>
</svg>
