<svg width="25" height="25" viewBox="0 0 25 25" fill="none" xmlns="http://www.w3.org/2000/svg">
<path d="M17.7463 0H7.26612C2.71385 0 0 2.7125 0 7.2625V17.725C0 22.2875 2.71385 25 7.26612 25H17.7338C22.2861 25 25 22.2875 25 17.7375V7.2625C25.0125 2.7125 22.2986 0 17.7463 0ZM17.5838 15C17.3962 15.1875 17.1586 15.275 16.9209 15.275C16.6833 15.275 16.4457 15.175 16.2581 15L12.5062 11.25L8.75436 15C8.39168 15.3625 7.79138 15.3625 7.4287 15C7.25426 14.8236 7.15644 14.5855 7.15644 14.3375C7.15644 14.0895 7.25426 13.8514 7.4287 13.675L11.8434 9.2625C12.2061 8.9 12.8064 8.9 13.1691 9.2625L17.5838 13.675C17.9464 14.0375 17.9464 14.625 17.5838 15Z" fill="#587158"/>
</svg>
