<svg width="25" height="25" viewBox="0 0 25 25" fill="none" xmlns="http://www.w3.org/2000/svg">
<path opacity="0.4" d="M4.70883 17.5663C4.84584 16.9514 4.59673 16.0731 4.16077 15.634L1.13397 12.585C0.18732 11.6314 -0.186358 10.615 0.0876728 9.73673C0.37416 8.85841 1.25853 8.25614 2.57886 8.03029L6.46512 7.37783C7.02563 7.27745 7.71071 6.77556 7.97229 6.26112L10.1147 1.93229C10.7375 0.690103 11.5845 0 12.5063 0C13.428 0 14.275 0.690103 14.8978 1.93229L17.0402 6.26112C17.2021 6.58735 17.5385 6.90103 17.8997 7.11433L4.48462 20.6278C4.31024 20.8035 4.0113 20.6404 4.06112 20.3894L4.70883 17.5663Z" fill="#E49F82"/>
<path d="M20.8517 15.6365C20.4033 16.0882 20.1542 16.954 20.3037 17.5688L21.1631 21.3456C21.5244 22.914 21.3001 24.0934 20.5279 24.6581C20.1999 24.889 19.8069 25.0078 19.4068 24.9968C18.7716 24.9968 18.0242 24.7584 17.2021 24.2691L13.5525 22.0859C12.9796 21.7471 12.0329 21.7471 11.4599 22.0859L7.81035 24.2691C6.42775 25.0847 5.24443 25.2227 4.48462 24.6581C4.19813 24.4448 3.98638 24.1562 3.84937 23.7797L18.9958 8.5222C19.5688 7.94502 20.3784 7.68153 21.1631 7.81955L22.4212 8.03286C23.7415 8.25871 24.6259 8.86098 24.9124 9.73929C25.1864 10.6176 24.8127 11.6339 23.8661 12.5875L20.8517 15.6365Z" fill="#E49F82"/>
</svg>
