<svg width="25" height="25" viewBox="0 0 25 25" fill="none" xmlns="http://www.w3.org/2000/svg">
<path d="M4.70882 17.5663C4.84584 16.9515 4.59672 16.0732 4.16076 15.634L1.13397 12.585C0.18732 11.6314 -0.186358 10.6151 0.0876727 9.73675C0.374159 8.85843 1.25853 8.25616 2.57886 8.03031L6.46511 7.37785C7.02562 7.27747 7.7107 6.77557 7.97227 6.26113L10.1147 1.93229C10.7375 0.690104 11.5845 0 12.5062 0C13.428 0 14.275 0.690104 14.8978 1.93229L17.0402 6.26113C17.2021 6.58736 17.5384 6.90105 17.8996 7.11435L4.48461 20.6279C4.31023 20.8035 4.01129 20.6404 4.06111 20.3895L4.70882 17.5663ZM20.8517 15.6365C20.4033 16.0882 20.1542 16.954 20.3036 17.5688L21.1631 21.3456C21.5243 22.914 21.3001 24.0934 20.5278 24.6581C20.1998 24.889 19.8069 25.0078 19.4068 24.9968C18.7716 24.9968 18.0242 24.7584 17.2021 24.2691L13.5525 22.0859C12.9796 21.7471 12.0329 21.7471 11.4599 22.0859L7.81034 24.2691C6.42774 25.0847 5.24443 25.2227 4.48461 24.6581C4.19813 24.4448 3.98638 24.1562 3.84936 23.7797L18.9958 8.52216C19.5687 7.94499 20.3784 7.68149 21.1631 7.81951L22.4211 8.03282C23.7415 8.25867 24.6258 8.86094 24.9123 9.73926C25.1864 10.6176 24.8127 11.6339 23.866 12.5875L20.8517 15.6365Z" fill="#E49F82"/>
</svg>
