<?xml version="1.0" encoding="utf-8"?>
<!-- Generator: Adobe Illustrator 24.2.0, SVG Export Plug-In . SVG Version: 6.00 Build 0)  -->
<svg version="1.1" id="Calque_1" xmlns="http://www.w3.org/2000/svg" xmlns:xlink="http://www.w3.org/1999/xlink" x="0px" y="0px"
	 viewBox="0 0 512 512" style="enable-background:new 0 0 512 512;" xml:space="preserve">
<style type="text/css">
	.st0{fill:#FFFFFF;}
</style>
<path class="st0" d="M511.2,387L488,487.8c-3.3,14.2-15.8,24.2-30.5,24.2C205.2,512,0,306.8,0,54.5c0-14.7,10-27.2,24.2-30.4
	L125,0.8c14.7-3.4,29.8,4.2,35.9,18.1l46.5,108.6c5.4,12.8,1.8,27.7-9,36.4L144.5,208c34,69.2,90.3,125.5,159.5,159.5l44-53.8
	c8.7-10.8,23.7-14.5,36.5-9l108.5,46.5C507,357.2,514.6,372.4,511.2,387z"/>
</svg>
