<?xml version="1.0" encoding="utf-8"?>
<!-- Generator: Adobe Illustrator 24.2.0, SVG Export Plug-In . SVG Version: 6.00 Build 0)  -->
<svg version="1.1" id="Calque_1" xmlns="http://www.w3.org/2000/svg" xmlns:xlink="http://www.w3.org/1999/xlink" x="0px" y="0px"
	 viewBox="0 0 576 512" style="enable-background:new 0 0 576 512;" xml:space="preserve">
<style type="text/css">
	.st0{fill:#587158;}
</style>
<path class="st0" d="M256,96h128c5.4,0,10.8,0.4,15.9,0.8c0-0.2,0.1-0.5,0.1-0.8c0-53-43-96-96-96s-96,43-96,96
	c0,2.1,0.5,4.1,0.6,6.2C223.7,98.2,239.6,96,256,96z M560,224h-29.5c-8.8-20-21.6-37.8-37.4-52.5L512,96h-32
	c-29.4,0-55.4,13.5-73,34.3c-7.6-1-15.1-2.3-23-2.3H256c-77.4,0-141.9,55-156.8,128H56c-14.8,0-26.5-13.5-23.5-28.8
	C34.7,215.8,45.3,208,57,208h1c3.2,0,6-2.8,6-6v-20c0-3.3-2.8-6-6-6c-28.5,0-53.9,20.4-57.5,48.6C-3.9,258.8,22.7,288,56,288h40
	c0,52.2,25.4,98.1,64,127.2V480c0,17.6,14.4,32,32,32h32c17.6,0,32-14.4,32-32v-32h128v32c0,17.6,14.4,32,32,32h32
	c17.6,0,32-14.4,32-32v-64.8c11.8-8.9,22.3-19.4,31.3-31.2H560c8.8,0,16-7.2,16-16V240C576,231.2,568.8,224,560,224z M432,288
	c-8.8,0-16-7.2-16-16s7.3-16,16-16s16,7.2,16,16S440.7,288,432,288z"/>
</svg>
