<?xml version="1.0" encoding="utf-8"?>
<!-- Generator: Adobe Illustrator 24.2.0, SVG Export Plug-In . SVG Version: 6.00 Build 0)  -->
<svg version="1.1" id="Calque_1" xmlns="http://www.w3.org/2000/svg" xmlns:xlink="http://www.w3.org/1999/xlink" x="0px" y="0px"
	 viewBox="0 0 512 512" style="enable-background:new 0 0 512 512;" xml:space="preserve">
<style type="text/css">
	.st0{fill:#587158;}
</style>
<path class="st0" d="M464,32H336c-26.5,0-48,21.5-48,48v128c0,26.5,21.5,48,48,48h80v64c0,35.2-28.8,64-64,64h-8
	c-13.2,0-24,10.8-24,24v48c0,13.2,10.8,24,24,24h8c88.4,0,160-71.6,160-160V80C512,53.5,490.5,32,464,32z M176,32H48
	C21.5,32,0,53.5,0,80v128c0,26.5,21.5,48,48,48h80v64c0,35.2-28.8,64-64,64h-8c-13.2,0-24,10.8-24,24v48c0,13.2,10.8,24,24,24h8
	c88.4,0,160-71.6,160-160V80C224,53.5,202.5,32,176,32z"/>
</svg>
