<?xml version="1.0" encoding="utf-8"?>
<!-- Generator: Adobe Illustrator 24.2.0, SVG Export Plug-In . SVG Version: 6.00 Build 0)  -->
<svg version="1.1" id="Calque_1" xmlns="http://www.w3.org/2000/svg" xmlns:xlink="http://www.w3.org/1999/xlink" x="0px" y="0px"
	 viewBox="0 0 512 512" style="enable-background:new 0 0 512 512;" xml:space="preserve">
<style type="text/css">
	.st0{fill:#FFFFFF;}
</style>
<path class="st0" d="M259.8,86l49.6,20.6l20.6,49.6c1.1,2.4,3.5,3.8,6,3.8s4.9-1.4,6-3.8l20.6-49.6L412.3,86c2.4-1.1,3.8-3.5,3.8-6
	s-1.4-4.9-3.8-6l-49.6-20.6L342,3.7c-1.1-2.4-3.5-3.8-6-3.8s-4.9,1.4-6,3.8l-20.6,49.6L259.8,74c-2.4,1.1-3.8,3.5-3.8,6
	S257.4,84.9,259.8,86z M364.3,267.3L259.5,252l-46.9-95.3c-8.4-17-32.7-17.1-41.2,0L124.5,252L19.8,267.3C0.9,270-6.7,293.3,7,306.5
	l75.9,74l-18,104.6c-3.1,18.9,16.8,33,33.4,24.1l93.7-49.4l93.7,49.4c7.8,4.1,17.1,3.4,24.2-1.8c7-5.1,10.6-13.9,9.1-22.4
	l-17.9-104.6l75.9-74C390.8,293.3,383.1,270,364.3,267.3z M509,219.3l-39.6-16.6L452.8,163c-0.9-1.9-2.8-3-4.8-3s-3.9,1.1-4.8,3
	l-16.6,39.6L387,219.3c-1.9,0.9-3,2.8-3,4.8s1.1,3.9,3,4.8l39.6,16.6l16.6,39.6c0.9,1.9,2.8,3,4.8,3s3.9-1.1,4.8-3l16.6-39.6
	l39.6-16.6c1.9-0.9,3-2.8,3-4.8S510.9,220.1,509,219.3z"/>
</svg>
